<svg xmlns="http://www.w3.org/2000/svg" width="19" height="21" viewBox="0 0 19 21" fill="none"><path d="M8.86275 0.713277C9.10806 0.573427 9.38442 0.5 9.66546 0.5C9.9465 0.5 10.2229 0.573427 10.4682 0.713277C12.9125 2.12158 15.357 3.52967 17.8018 4.93755C18.0317 5.07105 18.2232 5.26383 18.357 5.49656C18.4908 5.72928 18.5623 5.99379 18.5644 6.26357V14.7398C18.5596 15.0195 18.481 15.2928 18.3368 15.5308C18.1926 15.7688 17.9881 15.9627 17.745 16.0923C15.3085 17.493 12.8726 18.8944 10.4373 20.2964C10.1874 20.4374 9.90497 20.5075 9.61948 20.4994C9.33399 20.4913 9.05584 20.4053 8.81397 20.2504C8.08372 19.8185 7.35285 19.3876 6.62136 18.9578C6.46082 18.8836 6.31687 18.7767 6.1984 18.6436C6.29163 18.5177 6.45835 18.4994 6.59357 18.4434C6.89367 18.3339 7.18308 18.196 7.45802 18.0316C7.49267 18.0107 7.53263 18.0009 7.57279 18.0034C7.61294 18.0059 7.65146 18.0205 7.6834 18.0454C8.30827 18.4106 8.92697 18.7865 9.5537 19.1479C9.68769 19.2266 9.82291 19.1221 9.93714 19.0573C12.328 17.6792 14.7196 16.3028 17.1121 14.9281C17.1547 14.9064 17.19 14.872 17.2132 14.8296C17.2365 14.7871 17.2466 14.7385 17.2424 14.6901C17.2424 11.8949 17.2424 9.09927 17.2424 6.30324C17.2467 6.24885 17.2343 6.19442 17.2068 6.14758C17.1794 6.10073 17.1383 6.0638 17.0892 6.04194C14.6605 4.64749 12.2331 3.25241 9.80686 1.85671C9.76475 1.82733 9.71493 1.81162 9.66391 1.81162C9.6129 1.81162 9.56308 1.82733 9.52097 1.85671C7.09228 3.25199 4.66503 4.6477 2.23921 6.04383C2.18999 6.06513 2.14862 6.10174 2.12101 6.14844C2.0934 6.19514 2.08096 6.24954 2.08547 6.30387C2.08547 9.09906 2.08547 11.8947 2.08547 14.6907C2.08126 14.739 2.09167 14.7875 2.11529 14.8296C2.13891 14.8717 2.17462 14.9054 2.2176 14.9262C2.86553 15.3006 3.51366 15.674 4.162 16.0463C4.34179 16.1597 4.54301 16.233 4.7525 16.2617C4.962 16.2903 5.17507 16.2736 5.37779 16.2126C5.55345 16.145 5.70472 16.0245 5.81141 15.8669C5.9181 15.7094 5.97513 15.5225 5.97487 15.3311C5.97796 12.5518 5.97487 9.77257 5.97487 6.99396C5.97414 6.96447 5.97954 6.93517 5.99071 6.90796C6.00188 6.88075 6.01857 6.85627 6.03968 6.83611C6.06079 6.81595 6.08585 6.80057 6.1132 6.79099C6.14056 6.78141 6.16959 6.77783 6.1984 6.78051C6.50713 6.78051 6.82142 6.7761 7.13262 6.78051C7.16272 6.78194 7.1922 6.78979 7.21915 6.80355C7.24609 6.81732 7.2699 6.83669 7.28905 6.86043C7.30819 6.88416 7.32224 6.91173 7.33029 6.94135C7.33834 6.97096 7.3402 7.00197 7.33576 7.03237C7.33576 9.82924 7.33885 12.6261 7.33576 15.4223C7.35646 15.8023 7.27687 16.1809 7.10528 16.5188C6.93369 16.8566 6.67639 17.1414 6.36017 17.3434C5.93756 17.5442 5.47491 17.642 5.00883 17.629C4.54275 17.616 4.08603 17.4926 3.67482 17.2685C2.96227 16.9058 2.28244 16.4783 1.58285 16.0898C1.34002 15.9606 1.13586 15.767 0.991877 15.5294C0.847891 15.2918 0.769413 15.0191 0.764709 14.7398V6.26357C0.766808 5.98813 0.841221 5.7183 0.980212 5.48211C1.1192 5.24593 1.3177 5.05202 1.55506 4.92055C3.99199 3.51896 6.42789 2.11654 8.86275 0.713277Z" fill="#8CC84B"></path><path d="M10.9876 6.58331C12.0641 6.44123 13.158 6.6119 14.1435 7.0757C14.5006 7.29294 14.7959 7.60156 15.0001 7.971C15.2042 8.34044 15.3102 8.75787 15.3074 9.18192C15.2935 9.23495 15.2613 9.28109 15.2167 9.31186C15.1722 9.34263 15.1182 9.35596 15.0647 9.34941C14.756 9.34941 14.4473 9.35381 14.1386 9.34941C14.0793 9.34551 14.0236 9.31921 13.9824 9.27566C13.9412 9.2321 13.9174 9.17442 13.9156 9.11391C13.8807 8.90855 13.8024 8.71341 13.686 8.54204C13.5697 8.37068 13.4182 8.22719 13.242 8.12157C12.6557 7.88416 12.0226 7.79181 11.3945 7.85207C10.9317 7.83731 10.474 7.95346 10.0719 8.18768C9.93349 8.29714 9.83217 8.44809 9.78222 8.61931C9.73227 8.79054 9.7362 8.97342 9.79346 9.14225C9.89225 9.38215 10.1639 9.45708 10.3862 9.53075C11.6668 9.87202 13.0234 9.83802 14.2793 10.2863C14.549 10.3627 14.798 10.501 15.0072 10.6907C15.2163 10.8804 15.3801 11.1164 15.4859 11.3807C15.6118 11.7556 15.6422 12.1571 15.5743 12.5473C15.5064 12.9375 15.3423 13.3037 15.0975 13.6116C14.6546 14.0803 14.0794 14.3964 13.4519 14.5158C12.6347 14.685 11.7963 14.7214 10.9679 14.6234C10.1728 14.5772 9.41053 14.2849 8.78267 13.7854C8.53356 13.5526 8.33797 13.2666 8.20988 12.9477C8.08179 12.6289 8.02436 12.2852 8.04171 11.9411C8.04733 11.8854 8.07432 11.8343 8.11679 11.7989C8.15925 11.7635 8.21373 11.7467 8.26832 11.7522C8.57705 11.7522 8.88887 11.749 9.19946 11.7522C9.22821 11.7515 9.2568 11.7567 9.28358 11.7674C9.31036 11.778 9.3348 11.794 9.35547 11.8144C9.37615 11.8348 9.39265 11.8592 9.40403 11.8861C9.41541 11.913 9.42143 11.942 9.42175 11.9713C9.43725 12.1669 9.49181 12.3571 9.58207 12.5303C9.67232 12.7036 9.79637 12.8562 9.94659 12.9788C10.6114 13.3123 11.3543 13.4501 12.0917 13.3767C12.7089 13.424 13.3248 13.2696 13.8502 12.9359C13.971 12.8155 14.0589 12.6651 14.1052 12.4995C14.1516 12.3338 14.1548 12.1587 14.1145 11.9915C14.0391 11.7119 13.752 11.5815 13.5057 11.4965C12.2417 11.0885 10.8697 11.2365 9.61563 10.7756C9.35305 10.6973 9.11025 10.5618 8.90398 10.3785C8.69771 10.1952 8.53287 9.9685 8.42084 9.71397C8.27699 9.33402 8.24067 8.92052 8.31599 8.52055C8.39131 8.12057 8.57526 7.7502 8.84689 7.45161C9.43866 6.91891 10.1922 6.61009 10.9808 6.57701L10.9876 6.58331Z" fill="#8CC84B"></path></svg>